<svg xmlns="http://www.w3.org/2000/svg" viewBox="0 0 30.407 25.079"><path d="M10.325 6.072c0-.515-.2-1-.566-1.366-.71-.704-2.03-.706-2.73.002L.56 11.175c-.36.36-.565.856-.565 1.364s.206 1 .565 1.36l6.468 6.47c.366.36.85.56 1.363.56s1-.2 1.37-.57c.363-.365.563-.85.563-1.364s-.2-1-.564-1.364l-5.105-5.1 5.104-5.1c.362-.366.563-.85.563-1.367zm19.517 5.103l-6.467-6.467c-.705-.707-2.018-.708-2.73 0-.363.364-.563.85-.563 1.364 0 .518.2 1.003.564 1.364l5.103 5.103-5.11 5.1c-.367.36-.567.85-.567 1.36s.2 1 .566 1.362c.365.363.85.563 1.363.563s1-.2 1.363-.564l6.47-6.466c.36-.36.567-.857.567-1.365s-.205-1.007-.564-1.366zM18.425.068c-1.11-.3-2.34.43-2.624 1.535l-5.39 20.792c-.29 1.143.4 2.316 1.54 2.616.18.05.36.07.54.07.98 0 1.83-.66 2.08-1.6l5.39-20.79c.146-.554.064-1.13-.226-1.623-.29-.495-.755-.846-1.3-.99z"/></svg>